<svg id="svg" xmlns="http://www.w3.org/2000/svg" xmlns:xlink="http://www.w3.org/1999/xlink" width="400" height="400" viewBox="0, 0, 400,400"><g id="svgg"><path id="path0" d="M58.984 51.298 C 50.607 55.714,49.692 58.561,50.242 78.496 C 54.254 224.016,176.214 345.973,321.484 349.733 C 340.675 350.229,342.704 349.675,347.461 342.641 L 350.000 338.886 350.000 304.560 C 350.000 266.818,350.143 268.040,345.089 262.713 C 341.696 259.137,337.206 258.017,324.219 257.504 C 308.459 256.882,295.669 254.738,279.180 249.956 C 263.614 245.441,263.096 245.700,238.731 270.178 L 220.041 288.956 216.856 287.354 C 176.238 266.924,133.076 223.762,112.646 183.144 L 111.044 179.959 129.822 161.269 C 154.289 136.915,154.656 136.178,150.039 120.644 C 145.379 104.964,143.128 91.647,142.524 76.172 C 141.891 59.951,140.026 55.243,132.768 51.540 C 128.584 49.405,62.983 49.190,58.984 51.298 " stroke="none" fill="#fff" fill-rule="evenodd"></path></g></svg>