<svg id="svg" xmlns="http://www.w3.org/2000/svg" xmlns:xlink="http://www.w3.org/1999/xlink" width="400" height="400" viewBox="0, 0, 400,400"><g id="svgg"><path id="path0" d="M63.913 2.366 C 33.665 9.704,8.173 35.973,1.842 66.332 C -0.721 78.622,-0.721 321.378,1.842 333.668 C 8.355 364.902,35.098 391.645,66.332 398.158 C 78.622 400.721,321.378 400.721,333.668 398.158 C 364.902 391.645,391.645 364.902,398.158 333.668 C 400.721 321.378,400.721 78.622,398.158 66.332 C 391.645 35.098,364.902 8.355,333.668 1.842 C 320.452 -0.914,75.474 -0.438,63.913 2.366 M121.164 56.827 C 134.502 63.284,140.495 80.944,134.344 95.667 C 125.726 116.291,90.940 116.291,82.323 95.667 C 71.506 69.777,96.430 44.853,121.164 56.827 M133.333 225.000 L 133.333 316.667 108.333 316.667 L 83.333 316.667 83.333 225.000 L 83.333 133.333 108.333 133.333 L 133.333 133.333 133.333 225.000 M216.667 147.165 L 216.667 160.997 226.367 151.564 C 255.375 123.354,305.436 129.215,323.809 162.972 C 332.442 178.834,333.282 186.929,333.309 254.583 L 333.333 316.667 308.333 316.667 L 283.333 316.667 283.333 266.098 C 283.333 227.900,282.771 213.660,281.033 207.886 C 271.885 177.488,236.270 174.289,221.088 202.500 C 217.661 208.867,217.477 211.580,216.998 262.917 L 216.496 316.667 191.581 316.667 L 166.667 316.667 166.667 225.000 L 166.667 133.333 191.667 133.333 L 216.667 133.333 216.667 147.165 " stroke="none" fill="#fff" fill-rule="evenodd"></path></g></svg>