<svg id="svg" xmlns="http://www.w3.org/2000/svg" xmlns:xlink="http://www.w3.org/1999/xlink" width="400" height="400" viewBox="0, 0, 400,400"><g id="svgg"><path id="path0" d="M165.995 2.678 C 38.727 25.661,-33.864 165.034,20.850 281.354 L 28.577 297.781 14.853 348.066 C 7.304 375.723,1.468 398.690,1.883 399.105 C 2.298 399.520,25.659 393.821,53.797 386.440 L 104.957 373.020 120.395 379.622 C 254.210 436.848,399.499 341.379,398.826 196.667 C 398.258 74.417,286.118 -19.015,165.995 2.678 M234.660 37.456 C 338.381 59.530,394.775 173.284,349.073 268.240 C 308.505 352.531,211.054 386.171,127.170 344.842 L 110.174 336.468 80.742 344.167 C 64.555 348.402,50.918 351.473,50.437 350.992 C 49.956 350.511,53.072 337.305,57.361 321.645 L 65.160 293.171 55.080 272.836 C 24.647 211.438,32.753 141.361,76.027 91.743 C 116.434 45.412,176.099 24.993,234.660 37.456 M121.929 108.950 C 95.003 123.885,93.663 166.340,118.935 203.879 C 175.157 287.397,281.750 323.127,299.217 264.310 C 304.883 245.230,304.882 245.228,273.771 230.853 C 249.909 219.827,250.414 219.767,238.565 235.042 C 226.995 249.955,226.394 250.075,208.791 240.962 C 189.690 231.074,175.551 219.279,163.290 203.008 C 150.179 185.608,149.714 183.399,157.378 174.915 C 169.958 160.990,170.031 159.934,160.082 135.560 C 147.876 105.658,148.701 106.655,136.212 106.726 C 130.504 106.758,124.076 107.759,121.929 108.950 " stroke="none" fill="#fff" fill-rule="evenodd"></path></g></svg>