<svg id="svg" xmlns="http://www.w3.org/2000/svg" xmlns:xlink="http://www.w3.org/1999/xlink" width="400" height="400" viewBox="0, 0, 400,400"><g id="svgg"><path id="path0" d="M186.122 0.431 C 65.704 9.230,-19.686 121.113,3.905 239.184 C 25.516 347.346,131.122 417.779,239.184 396.101 C 347.438 374.385,417.705 269.021,396.095 160.816 C 376.435 62.380,285.798 -6.853,186.122 0.431 M313.761 123.382 C 314.897 124.518,314.897 275.482,313.761 276.618 C 312.624 277.755,87.376 277.755,86.239 276.618 C 85.540 275.919,84.807 124.754,85.494 122.957 C 85.855 122.013,312.814 122.435,313.761 123.382 M104.324 133.524 C 105.484 134.823,183.447 206.457,186.531 209.056 C 197.937 218.672,201.619 218.800,212.262 209.952 C 220.100 203.436,294.092 135.469,295.217 133.752 L 295.937 132.653 199.742 132.653 L 103.547 132.653 104.324 133.524 M96.327 199.948 C 96.327 247.210,96.436 260.797,96.816 260.562 C 97.963 259.853,162.449 200.341,162.449 199.992 C 162.449 199.780,148.077 186.443,130.510 170.354 C 112.944 154.264,98.066 140.635,97.449 140.066 L 96.327 139.031 96.327 199.948 M281.156 159.694 C 269.382 170.526,254.754 183.962,248.650 189.553 C 242.545 195.143,237.551 199.840,237.551 199.991 C 237.551 200.212,295.696 253.816,301.907 259.320 L 303.673 260.886 303.673 200.443 C 303.673 149.761,303.584 140.000,303.119 140.000 C 302.813 140.000,292.930 148.862,281.156 159.694 M166.297 209.448 C 164.976 210.604,155.075 219.664,144.295 229.582 C 133.514 239.499,120.837 251.158,116.122 255.490 C 111.408 259.822,106.575 263.999,105.382 264.773 C 101.114 267.543,93.893 267.347,200.026 267.347 C 302.470 267.347,297.870 267.444,295.083 265.334 C 293.696 264.284,259.075 232.699,241.499 216.450 C 229.480 205.338,231.136 205.652,222.857 212.909 C 202.260 230.961,198.022 231.029,178.015 213.626 C 169.521 206.236,169.838 206.350,166.297 209.448 " stroke="none" fill="#fff" fill-rule="evenodd"></path></g></svg>