<svg id="svg" xmlns="http://www.w3.org/2000/svg" xmlns:xlink="http://www.w3.org/1999/xlink" width="400" height="400" viewBox="0, 0, 400,400"><g id="svgg"><path id="path0" d="M14.167 1.588 C 12.333 2.357,8.583 5.364,5.833 8.270 L 0.833 13.552 0.833 200.082 L 0.833 386.611 7.110 392.889 L 13.387 399.167 113.360 399.621 L 213.333 400.076 213.333 322.538 L 213.333 245.000 187.500 245.000 L 161.667 245.000 161.667 215.000 L 161.667 185.000 187.500 185.000 L 213.333 185.000 213.358 156.250 C 213.421 83.125,238.523 57.979,308.843 60.602 C 341.428 61.818,338.333 58.723,338.333 90.098 L 338.333 116.667 320.417 116.739 C 296.508 116.836,289.147 118.418,282.720 124.840 L 277.500 130.055 276.971 157.528 L 276.442 185.000 306.281 185.000 L 336.119 185.000 332.255 214.583 C 330.131 230.854,328.379 244.354,328.363 244.583 C 328.347 244.813,316.708 245.000,302.500 245.000 L 276.667 245.000 276.667 322.565 L 276.667 400.129 331.641 399.648 L 386.615 399.167 392.891 392.889 L 399.167 386.611 399.167 200.000 L 399.167 13.389 392.889 7.111 L 386.612 0.833 202.056 0.511 C 100.550 0.334,16.000 0.818,14.167 1.588 " stroke="none" fill="#fff" fill-rule="evenodd"></path></g></svg>